<mxfile host="app.diagrams.net" modified="2024-05-10T03:05:37.368Z" agent="Mozilla/5.0 (Windows NT 10.0; Win64; x64) AppleWebKit/537.36 (KHTML, like Gecko) Chrome/123.0.0.0 Safari/537.36 OPR/109.0.0.0" etag="k9OSTuW4lQixl6oXxpi9" version="24.3.1" type="github">
  <diagram id="C5RBs43oDa-KdzZeNtuy" name="Page-1">
    <mxGraphModel dx="1441" dy="841" grid="1" gridSize="10" guides="1" tooltips="1" connect="1" arrows="1" fold="1" page="1" pageScale="1" pageWidth="827" pageHeight="1169" math="0" shadow="0">
      <root>
        <mxCell id="WIyWlLk6GJQsqaUBKTNV-0" />
        <mxCell id="WIyWlLk6GJQsqaUBKTNV-1" parent="WIyWlLk6GJQsqaUBKTNV-0" />
        <mxCell id="zkfFHV4jXpPFQw0GAbJ--0" value="Imobiliaria" style="swimlane;fontStyle=2;align=center;verticalAlign=top;childLayout=stackLayout;horizontal=1;startSize=26;horizontalStack=0;resizeParent=1;resizeLast=0;collapsible=1;marginBottom=0;rounded=0;shadow=0;strokeWidth=1;" parent="WIyWlLk6GJQsqaUBKTNV-1" vertex="1">
          <mxGeometry x="550" y="30" width="260" height="170" as="geometry">
            <mxRectangle x="230" y="140" width="160" height="26" as="alternateBounds" />
          </mxGeometry>
        </mxCell>
        <mxCell id="zkfFHV4jXpPFQw0GAbJ--1" value="- nome : String&#xa;- corretores : List&lt;Corretor&gt;&#xa;- cnpj : Int&#xa;- proprietario : Pessoa&#xa;- registros: List&lt;Registro&gt;&#xa;- endereco : Endereco" style="text;align=left;verticalAlign=top;spacingLeft=4;spacingRight=4;overflow=hidden;rotatable=0;points=[[0,0.5],[1,0.5]];portConstraint=eastwest;" parent="zkfFHV4jXpPFQw0GAbJ--0" vertex="1">
          <mxGeometry y="26" width="260" height="94" as="geometry" />
        </mxCell>
        <mxCell id="zkfFHV4jXpPFQw0GAbJ--4" value="" style="line;html=1;strokeWidth=1;align=left;verticalAlign=middle;spacingTop=-1;spacingLeft=3;spacingRight=3;rotatable=0;labelPosition=right;points=[];portConstraint=eastwest;" parent="zkfFHV4jXpPFQw0GAbJ--0" vertex="1">
          <mxGeometry y="120" width="260" height="8" as="geometry" />
        </mxCell>
        <mxCell id="zkfFHV4jXpPFQw0GAbJ--5" value="+ adquirirCorretor() : Corretor&#xa;+ registrarAcordo(Proprietario, Corretor) : void&#xa;" style="text;align=left;verticalAlign=top;spacingLeft=4;spacingRight=4;overflow=hidden;rotatable=0;points=[[0,0.5],[1,0.5]];portConstraint=eastwest;" parent="zkfFHV4jXpPFQw0GAbJ--0" vertex="1">
          <mxGeometry y="128" width="260" height="42" as="geometry" />
        </mxCell>
        <mxCell id="zkfFHV4jXpPFQw0GAbJ--6" value="Imovel" style="swimlane;fontStyle=0;align=center;verticalAlign=top;childLayout=stackLayout;horizontal=1;startSize=26;horizontalStack=0;resizeParent=1;resizeLast=0;collapsible=1;marginBottom=0;rounded=0;shadow=0;strokeWidth=1;" parent="WIyWlLk6GJQsqaUBKTNV-1" vertex="1">
          <mxGeometry x="300" y="180" width="160" height="270" as="geometry">
            <mxRectangle x="130" y="380" width="160" height="26" as="alternateBounds" />
          </mxGeometry>
        </mxCell>
        <mxCell id="zkfFHV4jXpPFQw0GAbJ--7" value="- corretor : Corretor&#xa;- nome: Str&#xa;- condicoes : List&lt;Codicao&gt;&#xa;- tamanho : Double&#xa;- valor : Double&#xa;- endereco : Endereco&#xa;- isAgendada : Boolean&#xa;- vendida : Boolean&#xa;- endereco : Endereco" style="text;align=left;verticalAlign=top;spacingLeft=4;spacingRight=4;overflow=hidden;rotatable=0;points=[[0,0.5],[1,0.5]];portConstraint=eastwest;" parent="zkfFHV4jXpPFQw0GAbJ--6" vertex="1">
          <mxGeometry y="26" width="160" height="134" as="geometry" />
        </mxCell>
        <mxCell id="zkfFHV4jXpPFQw0GAbJ--9" value="" style="line;html=1;strokeWidth=1;align=left;verticalAlign=middle;spacingTop=-1;spacingLeft=3;spacingRight=3;rotatable=0;labelPosition=right;points=[];portConstraint=eastwest;" parent="zkfFHV4jXpPFQw0GAbJ--6" vertex="1">
          <mxGeometry y="160" width="160" height="8" as="geometry" />
        </mxCell>
        <mxCell id="zkfFHV4jXpPFQw0GAbJ--11" value="+ desvalorizar(Double) : void&#xa;+ valorizar(Double) : void&#xa;+ danificar() : void&#xa;+ concertar() : void&#xa;+ receber(Pessoa): void&#xa;+ agendar(): void" style="text;align=left;verticalAlign=top;spacingLeft=4;spacingRight=4;overflow=hidden;rotatable=0;points=[[0,0.5],[1,0.5]];portConstraint=eastwest;" parent="zkfFHV4jXpPFQw0GAbJ--6" vertex="1">
          <mxGeometry y="168" width="160" height="102" as="geometry" />
        </mxCell>
        <mxCell id="CCJytgPnTvxZq_mz_sw2-0" style="edgeStyle=orthogonalEdgeStyle;rounded=0;orthogonalLoop=1;jettySize=auto;html=1;entryX=0.534;entryY=1.008;entryDx=0;entryDy=0;entryPerimeter=0;endArrow=none;endFill=0;" edge="1" parent="WIyWlLk6GJQsqaUBKTNV-1" source="zkfFHV4jXpPFQw0GAbJ--13" target="zkfFHV4jXpPFQw0GAbJ--24">
          <mxGeometry relative="1" as="geometry">
            <mxPoint x="720" y="530" as="targetPoint" />
          </mxGeometry>
        </mxCell>
        <mxCell id="zkfFHV4jXpPFQw0GAbJ--13" value="Pessoa" style="swimlane;fontStyle=0;align=center;verticalAlign=top;childLayout=stackLayout;horizontal=1;startSize=26;horizontalStack=0;resizeParent=1;resizeLast=0;collapsible=1;marginBottom=0;rounded=0;shadow=0;strokeWidth=1;" parent="WIyWlLk6GJQsqaUBKTNV-1" vertex="1">
          <mxGeometry x="600" y="860" width="160" height="170" as="geometry">
            <mxRectangle x="340" y="380" width="170" height="26" as="alternateBounds" />
          </mxGeometry>
        </mxCell>
        <mxCell id="zkfFHV4jXpPFQw0GAbJ--14" value="- cpf : Int&#xa;- nome : Str&#xa;- idade : Int&#xa;- capital : Double&#xa;- endereco : Endereço" style="text;align=left;verticalAlign=top;spacingLeft=4;spacingRight=4;overflow=hidden;rotatable=0;points=[[0,0.5],[1,0.5]];portConstraint=eastwest;" parent="zkfFHV4jXpPFQw0GAbJ--13" vertex="1">
          <mxGeometry y="26" width="160" height="84" as="geometry" />
        </mxCell>
        <mxCell id="zkfFHV4jXpPFQw0GAbJ--15" value="" style="line;html=1;strokeWidth=1;align=left;verticalAlign=middle;spacingTop=-1;spacingLeft=3;spacingRight=3;rotatable=0;labelPosition=right;points=[];portConstraint=eastwest;" parent="zkfFHV4jXpPFQw0GAbJ--13" vertex="1">
          <mxGeometry y="110" width="160" height="8" as="geometry" />
        </mxCell>
        <mxCell id="b0Zt6GLKjk-ooggkIDRh-5" value="+ pagar(Imovel) : void&#xa;+ negociar() : void&#xa;+ visitar(Imovel) : void&#xa;" style="text;align=left;verticalAlign=top;spacingLeft=4;spacingRight=4;overflow=hidden;rotatable=0;points=[[0,0.5],[1,0.5]];portConstraint=eastwest;" parent="zkfFHV4jXpPFQw0GAbJ--13" vertex="1">
          <mxGeometry y="118" width="160" height="52" as="geometry" />
        </mxCell>
        <mxCell id="zkfFHV4jXpPFQw0GAbJ--17" value="Endereco" style="swimlane;fontStyle=0;align=center;verticalAlign=top;childLayout=stackLayout;horizontal=1;startSize=26;horizontalStack=0;resizeParent=1;resizeLast=0;collapsible=1;marginBottom=0;rounded=0;shadow=0;strokeWidth=1;" parent="WIyWlLk6GJQsqaUBKTNV-1" vertex="1">
          <mxGeometry x="580" y="500" width="200" height="190" as="geometry">
            <mxRectangle x="550" y="140" width="160" height="26" as="alternateBounds" />
          </mxGeometry>
        </mxCell>
        <mxCell id="zkfFHV4jXpPFQw0GAbJ--18" value="- rua : Str&#xa;- cep : Int&#xa;- numero : Str&#xa;- cidade : Str&#xa;- estado : Str" style="text;align=left;verticalAlign=top;spacingLeft=4;spacingRight=4;overflow=hidden;rotatable=0;points=[[0,0.5],[1,0.5]];portConstraint=eastwest;" parent="zkfFHV4jXpPFQw0GAbJ--17" vertex="1">
          <mxGeometry y="26" width="200" height="84" as="geometry" />
        </mxCell>
        <mxCell id="zkfFHV4jXpPFQw0GAbJ--23" value="" style="line;html=1;strokeWidth=1;align=left;verticalAlign=middle;spacingTop=-1;spacingLeft=3;spacingRight=3;rotatable=0;labelPosition=right;points=[];portConstraint=eastwest;" parent="zkfFHV4jXpPFQw0GAbJ--17" vertex="1">
          <mxGeometry y="110" width="200" height="8" as="geometry" />
        </mxCell>
        <mxCell id="zkfFHV4jXpPFQw0GAbJ--24" value="+ identificar(Imovel) : Endereco&#xa;+ identificar(Imobiliaria) : Endereco&#xa;+ identificar(Pessoa) : Endereco&#xa;+ atualizar() : void" style="text;align=left;verticalAlign=top;spacingLeft=4;spacingRight=4;overflow=hidden;rotatable=0;points=[[0,0.5],[1,0.5]];portConstraint=eastwest;" parent="zkfFHV4jXpPFQw0GAbJ--17" vertex="1">
          <mxGeometry y="118" width="200" height="72" as="geometry" />
        </mxCell>
        <mxCell id="b0Zt6GLKjk-ooggkIDRh-6" value="Corretor" style="swimlane;fontStyle=0;align=center;verticalAlign=top;childLayout=stackLayout;horizontal=1;startSize=26;horizontalStack=0;resizeParent=1;resizeLast=0;collapsible=1;marginBottom=0;rounded=0;shadow=0;strokeWidth=1;" parent="WIyWlLk6GJQsqaUBKTNV-1" vertex="1">
          <mxGeometry x="310" y="590" width="180" height="145" as="geometry">
            <mxRectangle x="340" y="380" width="170" height="26" as="alternateBounds" />
          </mxGeometry>
        </mxCell>
        <mxCell id="b0Zt6GLKjk-ooggkIDRh-7" value="- vendas : List&lt;Imovel&gt;&#xa;- agendas : List&lt;Agenda&gt; &#xa;- clientes : List&lt;Cliente&gt;&#xa;" style="text;align=left;verticalAlign=top;spacingLeft=4;spacingRight=4;overflow=hidden;rotatable=0;points=[[0,0.5],[1,0.5]];portConstraint=eastwest;" parent="b0Zt6GLKjk-ooggkIDRh-6" vertex="1">
          <mxGeometry y="26" width="180" height="54" as="geometry" />
        </mxCell>
        <mxCell id="b0Zt6GLKjk-ooggkIDRh-8" value="" style="line;html=1;strokeWidth=1;align=left;verticalAlign=middle;spacingTop=-1;spacingLeft=3;spacingRight=3;rotatable=0;labelPosition=right;points=[];portConstraint=eastwest;" parent="b0Zt6GLKjk-ooggkIDRh-6" vertex="1">
          <mxGeometry y="80" width="180" height="8" as="geometry" />
        </mxCell>
        <mxCell id="b0Zt6GLKjk-ooggkIDRh-9" value="+ vender () : void&#xa;+ ofertar (Imovel) : Double&#xa;+ visitar (Imovel) : void&#xa;" style="text;align=left;verticalAlign=top;spacingLeft=4;spacingRight=4;overflow=hidden;rotatable=0;points=[[0,0.5],[1,0.5]];portConstraint=eastwest;" parent="b0Zt6GLKjk-ooggkIDRh-6" vertex="1">
          <mxGeometry y="88" width="180" height="52" as="geometry" />
        </mxCell>
        <mxCell id="b0Zt6GLKjk-ooggkIDRh-10" value="Vendido" style="swimlane;fontStyle=0;align=center;verticalAlign=top;childLayout=stackLayout;horizontal=1;startSize=26;horizontalStack=0;resizeParent=1;resizeLast=0;collapsible=1;marginBottom=0;rounded=0;shadow=0;strokeWidth=1;" parent="WIyWlLk6GJQsqaUBKTNV-1" vertex="1">
          <mxGeometry x="20" y="400" width="250" height="160" as="geometry">
            <mxRectangle x="130" y="380" width="160" height="26" as="alternateBounds" />
          </mxGeometry>
        </mxCell>
        <mxCell id="b0Zt6GLKjk-ooggkIDRh-11" value="- id : Str&#xa;- data : Date&#xa;- corretores : List&lt;Corretor&gt;&#xa;- imovel : Imovel&#xa;- imobiliaria: Imobiliaria" style="text;align=left;verticalAlign=top;spacingLeft=4;spacingRight=4;overflow=hidden;rotatable=0;points=[[0,0.5],[1,0.5]];portConstraint=eastwest;" parent="b0Zt6GLKjk-ooggkIDRh-10" vertex="1">
          <mxGeometry y="26" width="250" height="84" as="geometry" />
        </mxCell>
        <mxCell id="b0Zt6GLKjk-ooggkIDRh-12" value="" style="line;html=1;strokeWidth=1;align=left;verticalAlign=middle;spacingTop=-1;spacingLeft=3;spacingRight=3;rotatable=0;labelPosition=right;points=[];portConstraint=eastwest;" parent="b0Zt6GLKjk-ooggkIDRh-10" vertex="1">
          <mxGeometry y="110" width="250" height="8" as="geometry" />
        </mxCell>
        <mxCell id="b0Zt6GLKjk-ooggkIDRh-13" value="+ agendar(Corretor, Imovel, Imobiliaria) : void&#xa;+ mudarAgenda() : void" style="text;align=left;verticalAlign=top;spacingLeft=4;spacingRight=4;overflow=hidden;rotatable=0;points=[[0,0.5],[1,0.5]];portConstraint=eastwest;" parent="b0Zt6GLKjk-ooggkIDRh-10" vertex="1">
          <mxGeometry y="118" width="250" height="42" as="geometry" />
        </mxCell>
        <mxCell id="b0Zt6GLKjk-ooggkIDRh-23" style="edgeStyle=orthogonalEdgeStyle;rounded=0;orthogonalLoop=1;jettySize=auto;html=1;entryX=0.5;entryY=1;entryDx=0;entryDy=0;endArrow=block;endFill=0;endSize=15;" parent="WIyWlLk6GJQsqaUBKTNV-1" source="b0Zt6GLKjk-ooggkIDRh-18" target="b0Zt6GLKjk-ooggkIDRh-6" edge="1">
          <mxGeometry relative="1" as="geometry" />
        </mxCell>
        <mxCell id="b0Zt6GLKjk-ooggkIDRh-18" value="Gerente" style="swimlane;fontStyle=0;align=center;verticalAlign=top;childLayout=stackLayout;horizontal=1;startSize=26;horizontalStack=0;resizeParent=1;resizeLast=0;collapsible=1;marginBottom=0;rounded=0;shadow=0;strokeWidth=1;" parent="WIyWlLk6GJQsqaUBKTNV-1" vertex="1">
          <mxGeometry x="260" y="1000" width="200" height="140" as="geometry">
            <mxRectangle x="340" y="380" width="170" height="26" as="alternateBounds" />
          </mxGeometry>
        </mxCell>
        <mxCell id="b0Zt6GLKjk-ooggkIDRh-19" value="- equipes : List&lt;Equipe&gt;&#xa;- metas : List&lt;Double&gt; &#xa;" style="text;align=left;verticalAlign=top;spacingLeft=4;spacingRight=4;overflow=hidden;rotatable=0;points=[[0,0.5],[1,0.5]];portConstraint=eastwest;" parent="b0Zt6GLKjk-ooggkIDRh-18" vertex="1">
          <mxGeometry y="26" width="200" height="34" as="geometry" />
        </mxCell>
        <mxCell id="b0Zt6GLKjk-ooggkIDRh-20" value="" style="line;html=1;strokeWidth=1;align=left;verticalAlign=middle;spacingTop=-1;spacingLeft=3;spacingRight=3;rotatable=0;labelPosition=right;points=[];portConstraint=eastwest;" parent="b0Zt6GLKjk-ooggkIDRh-18" vertex="1">
          <mxGeometry y="60" width="200" height="8" as="geometry" />
        </mxCell>
        <mxCell id="b0Zt6GLKjk-ooggkIDRh-21" value="+ estimarMeta(Double) : void&#xa;+ removerCorretor (Corretor): void&#xa;+ adicionarCorretor (Corretor): void&#xa;+ mudarEquipe (Equipe) : Equipe" style="text;align=left;verticalAlign=top;spacingLeft=4;spacingRight=4;overflow=hidden;rotatable=0;points=[[0,0.5],[1,0.5]];portConstraint=eastwest;" parent="b0Zt6GLKjk-ooggkIDRh-18" vertex="1">
          <mxGeometry y="68" width="200" height="72" as="geometry" />
        </mxCell>
        <mxCell id="b0Zt6GLKjk-ooggkIDRh-22" style="edgeStyle=orthogonalEdgeStyle;rounded=0;orthogonalLoop=1;jettySize=auto;html=1;entryX=0;entryY=0.5;entryDx=0;entryDy=0;endArrow=block;endFill=0;endSize=15;" parent="WIyWlLk6GJQsqaUBKTNV-1" source="b0Zt6GLKjk-ooggkIDRh-6" target="zkfFHV4jXpPFQw0GAbJ--14" edge="1">
          <mxGeometry relative="1" as="geometry">
            <Array as="points">
              <mxPoint x="520" y="663" />
              <mxPoint x="520" y="928" />
            </Array>
          </mxGeometry>
        </mxCell>
        <mxCell id="b0Zt6GLKjk-ooggkIDRh-24" value="Equipe" style="swimlane;fontStyle=0;align=center;verticalAlign=top;childLayout=stackLayout;horizontal=1;startSize=26;horizontalStack=0;resizeParent=1;resizeLast=0;collapsible=1;marginBottom=0;rounded=0;shadow=0;strokeWidth=1;" parent="WIyWlLk6GJQsqaUBKTNV-1" vertex="1">
          <mxGeometry x="20" y="820" width="210" height="160" as="geometry">
            <mxRectangle x="340" y="380" width="170" height="26" as="alternateBounds" />
          </mxGeometry>
        </mxCell>
        <mxCell id="b0Zt6GLKjk-ooggkIDRh-25" value="- corretores: List&lt;Corretor&gt;&#xa;- vendidos : List&lt;Vendido&gt; &#xa;- valorVendido : Double&#xa;- gerente : Gerente&#xa;" style="text;align=left;verticalAlign=top;spacingLeft=4;spacingRight=4;overflow=hidden;rotatable=0;points=[[0,0.5],[1,0.5]];portConstraint=eastwest;" parent="b0Zt6GLKjk-ooggkIDRh-24" vertex="1">
          <mxGeometry y="26" width="210" height="64" as="geometry" />
        </mxCell>
        <mxCell id="b0Zt6GLKjk-ooggkIDRh-26" value="" style="line;html=1;strokeWidth=1;align=left;verticalAlign=middle;spacingTop=-1;spacingLeft=3;spacingRight=3;rotatable=0;labelPosition=right;points=[];portConstraint=eastwest;" parent="b0Zt6GLKjk-ooggkIDRh-24" vertex="1">
          <mxGeometry y="90" width="210" height="8" as="geometry" />
        </mxCell>
        <mxCell id="b0Zt6GLKjk-ooggkIDRh-27" value="+ adicionarCorretor (Corretor) : void&#xa;+ removerCorretor (Corretor) : void&#xa;+ vender (Imovel) : void&#xa;+ dividirComissao (Vendido): " style="text;align=left;verticalAlign=top;spacingLeft=4;spacingRight=4;overflow=hidden;rotatable=0;points=[[0,0.5],[1,0.5]];portConstraint=eastwest;" parent="b0Zt6GLKjk-ooggkIDRh-24" vertex="1">
          <mxGeometry y="98" width="210" height="62" as="geometry" />
        </mxCell>
        <mxCell id="b0Zt6GLKjk-ooggkIDRh-28" style="edgeStyle=orthogonalEdgeStyle;rounded=0;orthogonalLoop=1;jettySize=auto;html=1;entryX=0.493;entryY=1.002;entryDx=0;entryDy=0;entryPerimeter=0;endArrow=diamond;endFill=0;endSize=14;" parent="WIyWlLk6GJQsqaUBKTNV-1" source="b0Zt6GLKjk-ooggkIDRh-21" target="b0Zt6GLKjk-ooggkIDRh-27" edge="1">
          <mxGeometry relative="1" as="geometry" />
        </mxCell>
        <mxCell id="b0Zt6GLKjk-ooggkIDRh-29" style="edgeStyle=orthogonalEdgeStyle;rounded=0;orthogonalLoop=1;jettySize=auto;html=1;endArrow=diamond;endFill=0;endSize=15;exitX=0.017;exitY=0.15;exitDx=0;exitDy=0;exitPerimeter=0;" parent="WIyWlLk6GJQsqaUBKTNV-1" source="b0Zt6GLKjk-ooggkIDRh-9" target="b0Zt6GLKjk-ooggkIDRh-24" edge="1">
          <mxGeometry relative="1" as="geometry" />
        </mxCell>
        <mxCell id="CCJytgPnTvxZq_mz_sw2-1" style="edgeStyle=orthogonalEdgeStyle;rounded=0;orthogonalLoop=1;jettySize=auto;html=1;endArrow=diamond;endFill=1;endSize=15;exitX=0.75;exitY=0;exitDx=0;exitDy=0;" edge="1" parent="WIyWlLk6GJQsqaUBKTNV-1" source="b0Zt6GLKjk-ooggkIDRh-6" target="zkfFHV4jXpPFQw0GAbJ--5">
          <mxGeometry relative="1" as="geometry">
            <mxPoint x="400" y="590" as="sourcePoint" />
            <Array as="points">
              <mxPoint x="445" y="480" />
              <mxPoint x="630" y="480" />
            </Array>
          </mxGeometry>
        </mxCell>
        <mxCell id="CCJytgPnTvxZq_mz_sw2-2" style="edgeStyle=orthogonalEdgeStyle;rounded=0;orthogonalLoop=1;jettySize=auto;html=1;entryX=0.492;entryY=1.01;entryDx=0;entryDy=0;entryPerimeter=0;endArrow=none;endFill=0;exitX=0.25;exitY=0;exitDx=0;exitDy=0;" edge="1" parent="WIyWlLk6GJQsqaUBKTNV-1" source="b0Zt6GLKjk-ooggkIDRh-6" target="zkfFHV4jXpPFQw0GAbJ--11">
          <mxGeometry relative="1" as="geometry" />
        </mxCell>
        <mxCell id="CCJytgPnTvxZq_mz_sw2-4" style="edgeStyle=orthogonalEdgeStyle;rounded=0;orthogonalLoop=1;jettySize=auto;html=1;entryX=0.622;entryY=1.01;entryDx=0;entryDy=0;entryPerimeter=0;endArrow=none;endFill=0;" edge="1" parent="WIyWlLk6GJQsqaUBKTNV-1" source="zkfFHV4jXpPFQw0GAbJ--17" target="zkfFHV4jXpPFQw0GAbJ--5">
          <mxGeometry relative="1" as="geometry" />
        </mxCell>
        <mxCell id="CCJytgPnTvxZq_mz_sw2-6" style="edgeStyle=orthogonalEdgeStyle;rounded=0;orthogonalLoop=1;jettySize=auto;html=1;entryX=0.008;entryY=0.635;entryDx=0;entryDy=0;entryPerimeter=0;endArrow=block;endFill=0;endSize=15;exitX=0.5;exitY=0;exitDx=0;exitDy=0;" edge="1" parent="WIyWlLk6GJQsqaUBKTNV-1" source="zkfFHV4jXpPFQw0GAbJ--6" target="zkfFHV4jXpPFQw0GAbJ--1">
          <mxGeometry relative="1" as="geometry" />
        </mxCell>
        <mxCell id="CCJytgPnTvxZq_mz_sw2-7" style="edgeStyle=orthogonalEdgeStyle;rounded=0;orthogonalLoop=1;jettySize=auto;html=1;endArrow=none;endFill=0;exitX=1.011;exitY=0.961;exitDx=0;exitDy=0;exitPerimeter=0;" edge="1" parent="WIyWlLk6GJQsqaUBKTNV-1" source="zkfFHV4jXpPFQw0GAbJ--7" target="zkfFHV4jXpPFQw0GAbJ--18">
          <mxGeometry relative="1" as="geometry" />
        </mxCell>
        <mxCell id="CCJytgPnTvxZq_mz_sw2-8" style="edgeStyle=orthogonalEdgeStyle;rounded=0;orthogonalLoop=1;jettySize=auto;html=1;entryX=0.5;entryY=0;entryDx=0;entryDy=0;endArrow=diamond;endFill=1;endSize=15;" edge="1" parent="WIyWlLk6GJQsqaUBKTNV-1" source="zkfFHV4jXpPFQw0GAbJ--7" target="b0Zt6GLKjk-ooggkIDRh-10">
          <mxGeometry relative="1" as="geometry" />
        </mxCell>
        <mxCell id="CCJytgPnTvxZq_mz_sw2-9" value="0, 1" style="text;html=1;align=center;verticalAlign=middle;whiteSpace=wrap;rounded=0;" vertex="1" parent="WIyWlLk6GJQsqaUBKTNV-1">
          <mxGeometry x="90" y="370" width="40" height="20" as="geometry" />
        </mxCell>
        <mxCell id="CCJytgPnTvxZq_mz_sw2-10" value="1..*" style="text;html=1;align=center;verticalAlign=middle;whiteSpace=wrap;rounded=0;" vertex="1" parent="WIyWlLk6GJQsqaUBKTNV-1">
          <mxGeometry x="150" y="565" width="40" height="20" as="geometry" />
        </mxCell>
        <mxCell id="CCJytgPnTvxZq_mz_sw2-11" style="edgeStyle=orthogonalEdgeStyle;rounded=0;orthogonalLoop=1;jettySize=auto;html=1;entryX=0.48;entryY=1;entryDx=0;entryDy=0;entryPerimeter=0;endArrow=diamond;endFill=0;endSize=15;" edge="1" parent="WIyWlLk6GJQsqaUBKTNV-1" source="b0Zt6GLKjk-ooggkIDRh-7" target="b0Zt6GLKjk-ooggkIDRh-13">
          <mxGeometry relative="1" as="geometry" />
        </mxCell>
        <mxCell id="CCJytgPnTvxZq_mz_sw2-12" value="0 ..*" style="text;html=1;align=center;verticalAlign=middle;whiteSpace=wrap;rounded=0;" vertex="1" parent="WIyWlLk6GJQsqaUBKTNV-1">
          <mxGeometry x="340" y="450" width="40" height="20" as="geometry" />
        </mxCell>
        <mxCell id="CCJytgPnTvxZq_mz_sw2-13" value="1" style="text;html=1;align=center;verticalAlign=middle;whiteSpace=wrap;rounded=0;" vertex="1" parent="WIyWlLk6GJQsqaUBKTNV-1">
          <mxGeometry x="320" y="565" width="40" height="20" as="geometry" />
        </mxCell>
        <mxCell id="CCJytgPnTvxZq_mz_sw2-14" value="0,. *" style="text;html=1;align=center;verticalAlign=middle;whiteSpace=wrap;rounded=0;" vertex="1" parent="WIyWlLk6GJQsqaUBKTNV-1">
          <mxGeometry x="260" y="250" width="40" height="20" as="geometry" />
        </mxCell>
        <mxCell id="CCJytgPnTvxZq_mz_sw2-15" value="1..*" style="text;html=1;align=center;verticalAlign=middle;whiteSpace=wrap;rounded=0;" vertex="1" parent="WIyWlLk6GJQsqaUBKTNV-1">
          <mxGeometry x="270" y="620" width="40" height="20" as="geometry" />
        </mxCell>
        <mxCell id="CCJytgPnTvxZq_mz_sw2-16" value="1..*" style="text;html=1;align=center;verticalAlign=middle;whiteSpace=wrap;rounded=0;" vertex="1" parent="WIyWlLk6GJQsqaUBKTNV-1">
          <mxGeometry x="350" y="735" width="40" height="20" as="geometry" />
        </mxCell>
        <mxCell id="CCJytgPnTvxZq_mz_sw2-17" value="1..*" style="text;html=1;align=center;verticalAlign=middle;whiteSpace=wrap;rounded=0;" vertex="1" parent="WIyWlLk6GJQsqaUBKTNV-1">
          <mxGeometry x="70" y="800" width="40" height="20" as="geometry" />
        </mxCell>
        <mxCell id="CCJytgPnTvxZq_mz_sw2-18" value="1..*" style="text;html=1;align=center;verticalAlign=middle;whiteSpace=wrap;rounded=0;" vertex="1" parent="WIyWlLk6GJQsqaUBKTNV-1">
          <mxGeometry x="360" y="980" width="40" height="20" as="geometry" />
        </mxCell>
        <mxCell id="CCJytgPnTvxZq_mz_sw2-19" value="0..*" style="text;html=1;align=center;verticalAlign=middle;whiteSpace=wrap;rounded=0;" vertex="1" parent="WIyWlLk6GJQsqaUBKTNV-1">
          <mxGeometry x="270" y="690" width="40" height="20" as="geometry" />
        </mxCell>
        <mxCell id="CCJytgPnTvxZq_mz_sw2-20" value="0..*" style="text;html=1;align=center;verticalAlign=middle;whiteSpace=wrap;rounded=0;" vertex="1" parent="WIyWlLk6GJQsqaUBKTNV-1">
          <mxGeometry x="70" y="980" width="40" height="20" as="geometry" />
        </mxCell>
        <mxCell id="CCJytgPnTvxZq_mz_sw2-21" value="1..*" style="text;html=1;align=center;verticalAlign=middle;whiteSpace=wrap;rounded=0;" vertex="1" parent="WIyWlLk6GJQsqaUBKTNV-1">
          <mxGeometry x="220" y="1080" width="40" height="20" as="geometry" />
        </mxCell>
        <mxCell id="CCJytgPnTvxZq_mz_sw2-22" value="1" style="text;html=1;align=center;verticalAlign=middle;whiteSpace=wrap;rounded=0;" vertex="1" parent="WIyWlLk6GJQsqaUBKTNV-1">
          <mxGeometry x="650" y="690" width="40" height="20" as="geometry" />
        </mxCell>
        <mxCell id="CCJytgPnTvxZq_mz_sw2-23" value="0...*" style="text;html=1;align=center;verticalAlign=middle;whiteSpace=wrap;rounded=0;" vertex="1" parent="WIyWlLk6GJQsqaUBKTNV-1">
          <mxGeometry x="680" y="840" width="40" height="20" as="geometry" />
        </mxCell>
        <mxCell id="CCJytgPnTvxZq_mz_sw2-24" value="1" style="text;html=1;align=center;verticalAlign=middle;whiteSpace=wrap;rounded=0;" vertex="1" parent="WIyWlLk6GJQsqaUBKTNV-1">
          <mxGeometry x="540" y="545" width="40" height="20" as="geometry" />
        </mxCell>
        <mxCell id="CCJytgPnTvxZq_mz_sw2-25" value="0..*" style="text;html=1;align=center;verticalAlign=middle;whiteSpace=wrap;rounded=0;" vertex="1" parent="WIyWlLk6GJQsqaUBKTNV-1">
          <mxGeometry x="460" y="305" width="40" height="20" as="geometry" />
        </mxCell>
        <mxCell id="CCJytgPnTvxZq_mz_sw2-26" value="0..*" style="text;html=1;align=center;verticalAlign=middle;whiteSpace=wrap;rounded=0;" vertex="1" parent="WIyWlLk6GJQsqaUBKTNV-1">
          <mxGeometry x="400" y="570" width="40" height="20" as="geometry" />
        </mxCell>
        <mxCell id="CCJytgPnTvxZq_mz_sw2-27" value="1..*" style="text;html=1;align=center;verticalAlign=middle;whiteSpace=wrap;rounded=0;" vertex="1" parent="WIyWlLk6GJQsqaUBKTNV-1">
          <mxGeometry x="580" y="200" width="40" height="20" as="geometry" />
        </mxCell>
        <mxCell id="CCJytgPnTvxZq_mz_sw2-28" value="1...*" style="text;html=1;align=center;verticalAlign=middle;whiteSpace=wrap;rounded=0;" vertex="1" parent="WIyWlLk6GJQsqaUBKTNV-1">
          <mxGeometry x="680" y="480" width="40" height="20" as="geometry" />
        </mxCell>
        <mxCell id="CCJytgPnTvxZq_mz_sw2-29" value="0..*" style="text;html=1;align=center;verticalAlign=middle;whiteSpace=wrap;rounded=0;" vertex="1" parent="WIyWlLk6GJQsqaUBKTNV-1">
          <mxGeometry x="720" y="200" width="40" height="20" as="geometry" />
        </mxCell>
        <mxCell id="CCJytgPnTvxZq_mz_sw2-30" value="1..*" style="text;html=1;align=center;verticalAlign=middle;whiteSpace=wrap;rounded=0;" vertex="1" parent="WIyWlLk6GJQsqaUBKTNV-1">
          <mxGeometry x="510" y="90" width="40" height="20" as="geometry" />
        </mxCell>
        <mxCell id="CCJytgPnTvxZq_mz_sw2-31" value="1..*" style="text;html=1;align=center;verticalAlign=middle;whiteSpace=wrap;rounded=0;" vertex="1" parent="WIyWlLk6GJQsqaUBKTNV-1">
          <mxGeometry x="340" y="160" width="40" height="20" as="geometry" />
        </mxCell>
      </root>
    </mxGraphModel>
  </diagram>
</mxfile>
